<svg width="568" height="427" viewBox="0 0 568 427" fill="none" xmlns="http://www.w3.org/2000/svg">
<path d="M240.52 172.033C240.52 172.033 211.296 180.851 202.847 204.409C194.398 227.967 202.024 271.859 235.933 298.527C269.843 325.194 323.817 304.065 323.817 304.065C323.817 304.065 360.893 253.981 345.288 217.885C329.682 181.789 303.88 145.366 240.52 172.033Z" fill="#1A3CA2"/>
<path d="M184.601 272.782C184.601 272.782 169.151 333.842 192.354 333.842C215.557 333.842 255.174 332.962 255.174 332.962L225.354 279.84L184.601 272.782Z" fill="#F4A28C"/>
<path d="M243.26 172.133C243.26 172.133 226.774 189.911 243.26 200.76C259.746 211.609 279.697 195.932 274.926 184.898C270.155 173.865 255.784 166.311 255.784 166.311L243.26 172.133Z" fill="#F4A28C"/>
<path opacity="0.09" d="M243.26 172.133C243.26 172.133 226.774 189.911 243.26 200.76C259.746 211.609 279.697 195.932 274.926 184.898C270.155 173.865 255.784 166.311 255.784 166.311L243.26 172.133Z" fill="black"/>
<path d="M201.001 208.03C193.39 223.963 181.618 252.05 182.285 272.385L225.354 279.854C225.354 279.854 249.38 223.224 225.936 202.776C224.069 201.165 221.855 200.006 219.467 199.391C217.079 198.775 214.581 198.719 212.168 199.228C209.754 199.736 207.491 200.795 205.554 202.322C203.617 203.849 202.059 205.802 201.001 208.03Z" fill="#1A3CA2"/>
<path opacity="0.54" d="M201.001 208.03C193.39 223.963 181.618 252.05 182.285 272.385L225.354 279.854C225.354 279.854 249.38 223.224 225.936 202.776C224.069 201.165 221.855 200.006 219.467 199.391C217.079 198.775 214.581 198.719 212.168 199.228C209.754 199.736 207.491 200.795 205.554 202.322C203.617 203.849 202.059 205.802 201.001 208.03Z" fill="white"/>
<path d="M320.536 176.946C336.341 188.093 356.846 209.606 364.073 248.315L324.711 262.956C324.711 262.956 291.114 228.805 293.471 189.968C293.669 186.918 294.674 183.976 296.384 181.442C298.093 178.909 300.446 176.876 303.2 175.551C305.954 174.226 309.011 173.657 312.057 173.902C315.103 174.147 318.03 175.198 320.536 176.946Z" fill="#1A3CA2"/>
<path opacity="0.54" d="M320.536 176.946C336.341 188.093 356.846 209.606 364.073 248.315L324.711 262.956C324.711 262.956 291.114 228.805 293.471 189.968C293.669 186.918 294.674 183.976 296.384 181.442C298.093 178.909 300.446 176.876 303.2 175.551C305.954 174.226 309.011 173.657 312.057 173.902C315.103 174.147 318.03 175.198 320.536 176.946Z" fill="white"/>
<path opacity="0.58" d="M132.571 312.627C132.571 312.627 115.219 307.899 111.442 291.725C111.442 291.725 138.322 286.301 139.089 314.047L132.571 312.627Z" fill="#1A3CA2"/>
<path opacity="0.73" d="M134.701 310.909C134.701 310.909 122.574 291.739 133.281 273.833C133.281 273.833 153.729 286.812 144.641 310.952L134.701 310.909Z" fill="#1A3CA2"/>
<path d="M137.825 310.923C137.825 310.923 144.229 290.688 163.584 286.783C163.584 286.783 167.219 299.918 151.045 310.923H137.825Z" fill="#1A3CA2"/>
<path d="M125.229 310.469L128.751 334.538L150.903 334.623L154.169 310.583L125.229 310.469Z" fill="#96A5D4"/>
<path d="M230.708 150.449C230.708 150.449 234.599 178.21 249.352 177.344C264.106 176.478 255.032 145.692 255.032 145.692C255.032 145.692 253.044 130.072 244.283 130.072C235.522 130.072 224.176 131.265 230.708 150.449Z" fill="#F4A28C"/>
<path d="M229.046 153.985L232.042 156.825C232.042 156.825 247.18 148.788 247.18 136.519C247.18 136.519 250.02 147.141 256.296 151.088C256.296 151.088 262.572 129.675 250.872 127.289C250.872 127.289 247.137 121.211 243.36 120.785C240.293 120.43 224.247 125.429 223.125 139.245C222.952 141.988 223.395 144.735 224.419 147.285C225.443 149.835 227.024 152.124 229.046 153.985Z" fill="black"/>
<path d="M232.043 156.825C232.043 156.825 224.204 156.342 225.496 160.02C226.789 163.698 226.789 169.037 234.712 164.749L232.043 156.825Z" fill="#F4A28C"/>
<path opacity="0.09" d="M246.47 185.367C246.47 185.367 239.185 191.729 248.614 196.613C258.043 201.498 255.444 247.989 269.104 260.016C282.765 272.044 304.874 265.554 304.874 265.554L278.391 215.471L273.151 190.436L259.704 187.824L246.47 185.367Z" fill="black"/>
<path d="M255.771 150.534C255.771 150.534 262.629 146.7 263.055 150.534C263.481 154.368 265.796 159.225 256.807 158.799L255.771 150.534Z" fill="#F4A28C"/>
<path d="M265.824 180.369C265.824 180.369 248.912 173.439 245.007 180.369C241.102 187.298 263.637 192.51 263.637 192.51L265.824 180.369Z" fill="#F4A28C"/>
<path d="M265.824 180.369C265.824 180.369 248.912 173.439 245.007 180.369C241.102 187.298 263.637 192.51 263.637 192.51L265.824 180.369Z" fill="#F4A28C"/>
<path d="M362.1 249.026C362.1 249.026 380.333 297.405 358.862 308.765C337.392 320.125 276.403 257.73 263.637 192.467L265.824 180.326C265.824 180.326 287.323 204.012 295.445 218.34C303.568 232.667 328.716 251.965 328.716 251.965L362.1 249.026Z" fill="#F4A28C"/>
<path d="M233.221 333.856L218.055 257.971H338.741L329.085 335.787L233.221 333.856Z" fill="#FFC74B"/>
<path d="M278.377 303.44C282.957 303.44 286.67 299.727 286.67 295.147C286.67 290.567 282.957 286.854 278.377 286.854C273.797 286.854 270.084 290.567 270.084 295.147C270.084 299.727 273.797 303.44 278.377 303.44Z" fill="white"/>
<path d="M440.385 332.124H104.995V355.952H440.385V332.124Z" fill="#F1F2F5"/>
<path d="M421.541 298.342H395.74V332.238H421.541V298.342Z" fill="#1A3CA2"/>
<path d="M400.98 306.848H391.92C389.333 306.848 386.851 307.876 385.022 309.705C383.192 311.535 382.165 314.016 382.165 316.603C382.163 317.885 382.414 319.154 382.903 320.339C383.393 321.523 384.111 322.599 385.018 323.506C385.924 324.412 387 325.13 388.185 325.62C389.369 326.11 390.638 326.361 391.92 326.359H401.022" stroke="#1A3CA2" stroke-width="2.84" stroke-miterlimit="10"/>
<path d="M410.977 324.243C415.149 324.243 418.531 320.861 418.531 316.689C418.531 312.517 415.149 309.134 410.977 309.134C406.805 309.134 403.422 312.517 403.422 316.689C403.422 320.861 406.805 324.243 410.977 324.243Z" fill="#F1F2F5"/>
<path opacity="0.38" d="M398.75 298.342C398.75 298.342 392.09 280.081 408.69 277.042C425.29 274.003 428.826 267.94 418.63 255.359C408.434 242.778 411.53 233.675 421.626 231.943C431.722 230.211 446.533 248.472 453.903 226.263C461.273 204.054 476.026 211.978 481.664 226.263C487.301 240.548 497.284 263.098 466.91 264.83C436.536 266.563 451.29 288.161 440.47 292.321C434.326 294.717 428.031 296.705 421.626 298.271L398.75 298.342Z" fill="#F1F2F5"/>
<path opacity="0.38" d="M449.424 75.681C449.631 74.4175 449.74 73.1398 449.75 71.8595C449.75 65.0988 447.064 58.615 442.283 53.8345C437.503 49.054 431.019 46.3684 424.259 46.3684C420.273 46.3666 416.343 47.3118 412.794 49.1259C412.794 48.214 412.946 47.302 412.946 46.3684C413.049 39.7341 410.558 33.3218 406.005 28.4957C401.452 23.6697 395.195 20.8111 388.566 20.5282C381.937 20.2453 375.459 22.5604 370.511 26.9809C365.563 31.4013 362.535 37.5782 362.072 44.197C357.535 40.5679 351.892 38.6007 346.082 38.6224C340.272 38.6441 334.645 40.6533 330.134 44.3162C325.624 47.9791 322.503 53.0751 321.29 58.7572C320.077 64.4393 320.845 70.3654 323.467 75.5507H322.967C320.433 75.5486 317.927 76.0924 315.622 77.145C313.316 78.1976 311.264 79.7343 309.606 81.6507C307.947 83.5671 306.72 85.8182 306.009 88.2509C305.298 90.6836 305.119 93.241 305.485 95.749C305.85 98.257 306.752 100.657 308.127 102.786C309.503 104.914 311.321 106.722 313.458 108.085C315.594 109.448 318 110.335 320.51 110.686C323.02 111.037 325.576 110.843 328.005 110.118C328.723 116.317 331.695 122.036 336.355 126.187C341.015 130.339 347.038 132.633 353.279 132.634C354.932 138.036 358.334 142.736 362.949 145.995C367.564 149.253 373.13 150.887 378.774 150.638C384.418 150.39 389.82 148.273 394.13 144.622C398.441 140.97 401.416 135.989 402.589 130.463C406.319 133.533 410.844 135.479 415.638 136.076C420.432 136.672 425.296 135.895 429.665 133.833C434.034 131.772 437.727 128.511 440.314 124.432C442.901 120.352 444.276 115.622 444.278 110.791C444.278 110.791 444.278 110.661 444.278 110.596C445.112 110.715 445.954 110.781 446.797 110.791C451.23 110.764 455.49 109.069 458.731 106.045C461.972 103.021 463.956 98.8878 464.29 94.4675C464.624 90.0472 463.282 85.6631 460.532 82.1865C457.782 78.7099 453.824 76.3953 449.446 75.7027L449.424 75.681Z" fill="#F1F2F5"/>
<path d="M385.728 51.8206C393.311 52.2608 399.261 54.6606 403.578 58.9206C405.615 60.895 407.191 63.2943 408.195 65.9475C409.199 68.6007 409.605 71.4425 409.386 74.2708C409.351 77.9224 408.372 81.503 406.546 84.6652C404.756 87.3916 403.848 89.0672 401.093 90.9416C399.024 92.4552 396.807 93.7542 394.476 94.8182C392.914 95.6276 391.863 96.082 391.451 96.366C387.191 98.6522 384.791 100.839 384.564 104.787C384.422 107.314 383.57 107.982 381.142 107.84L377.095 107.598C374.667 107.456 373.9 106.704 374.042 104.176C374.553 95.5708 378.302 91.6374 384.734 87.846C384.635 87.846 388.838 85.5598 388.994 85.4604C390.306 84.697 391.546 83.8178 392.701 82.8334C393.817 81.748 394.773 80.5097 395.541 79.1556C396.21 77.525 396.622 75.8005 396.762 74.0436C397.117 67.8808 392.8 63.4646 384.72 62.996C376.924 62.5416 372.608 65.4242 369.398 71.6296C368.135 74.1004 367.311 74.4696 364.925 73.504L360.168 71.5018C357.882 70.664 357.328 69.102 358.294 67.0288C363.349 56.1232 372.494 51.0538 385.728 51.8206ZM379.296 113.236C384.152 113.52 385.672 115.238 385.388 120.08V121.003C385.104 125.945 383.4 127.379 378.543 127.095H377.734C372.877 126.811 371.358 125.206 371.642 120.25V119.342C371.926 114.485 373.63 112.966 378.486 113.25L379.296 113.236Z" fill="#FFC74B"/>
<path opacity="0.38" d="M332.962 138.55C333.068 138.287 333.154 138.016 333.217 137.74C333.421 136.806 333.385 135.835 333.113 134.918C332.841 134.001 332.342 133.168 331.662 132.495C330.983 131.822 330.144 131.332 329.224 131.07C328.304 130.808 327.333 130.782 326.401 130.995C326.473 130.806 326.53 130.611 326.572 130.413C326.742 129.059 326.419 127.689 325.662 126.554C324.905 125.419 323.765 124.594 322.45 124.23C321.135 123.866 319.733 123.988 318.5 124.573C317.267 125.158 316.287 126.168 315.737 127.417C315.07 126.592 314.186 125.971 313.184 125.622C312.183 125.274 311.104 125.214 310.069 125.447C309.035 125.68 308.086 126.199 307.331 126.944C306.576 127.688 306.045 128.629 305.797 129.66C305.598 130.496 305.598 131.367 305.797 132.202H305.683C305.165 132.029 304.616 131.967 304.072 132.02C303.528 132.072 303.001 132.238 302.525 132.508C302.049 132.777 301.635 133.143 301.31 133.582C300.984 134.021 300.755 134.524 300.636 135.057C300.517 135.591 300.512 136.143 300.62 136.679C300.728 137.215 300.947 137.722 301.264 138.168C301.58 138.613 301.987 138.987 302.457 139.266C302.927 139.545 303.451 139.721 303.994 139.785C304.359 139.881 304.738 139.915 305.115 139.884C304.971 141.245 305.323 142.611 306.105 143.733C306.888 144.854 308.049 145.656 309.375 145.99C309.499 147.21 310.014 148.357 310.843 149.26C311.672 150.163 312.771 150.773 313.975 151C315.18 151.227 316.425 151.058 317.526 150.518C318.627 149.979 319.523 149.098 320.082 148.007C320.743 148.832 321.621 149.456 322.617 149.809C323.613 150.163 324.688 150.231 325.721 150.007C326.754 149.782 327.703 149.274 328.463 148.54C329.223 147.805 329.763 146.873 330.022 145.848C330.192 145.92 330.368 145.977 330.548 146.019C331.511 146.264 332.533 146.13 333.401 145.646C334.27 145.162 334.92 144.363 335.218 143.414C335.516 142.465 335.44 141.438 335.004 140.544C334.569 139.65 333.807 138.957 332.876 138.606L332.962 138.55Z" fill="#F1F2F5"/>
<path opacity="0.38" d="M295.97 144.244C295.97 144.073 296.084 143.903 296.126 143.718C296.236 143.255 296.252 142.774 296.175 142.304C296.097 141.835 295.928 141.385 295.675 140.981C295.423 140.577 295.094 140.227 294.706 139.951C294.317 139.675 293.878 139.479 293.414 139.373C292.864 139.238 292.289 139.238 291.738 139.373C291.785 139.253 291.823 139.129 291.852 139.004C292.108 138.078 291.986 137.087 291.512 136.251C291.038 135.415 290.251 134.801 289.324 134.545C288.398 134.289 287.408 134.412 286.572 134.886C285.735 135.36 285.122 136.146 284.866 137.073C284.442 136.544 283.879 136.145 283.239 135.92C282.6 135.696 281.91 135.655 281.249 135.803C280.588 135.951 279.981 136.281 279.499 136.757C279.016 137.232 278.676 137.834 278.518 138.493C278.39 139.03 278.39 139.589 278.518 140.126C278.167 140.044 277.801 140.038 277.448 140.11C277.094 140.182 276.759 140.329 276.467 140.541C276.175 140.754 275.933 141.027 275.756 141.341C275.579 141.656 275.472 142.005 275.442 142.365C275.412 142.725 275.46 143.087 275.582 143.427C275.705 143.766 275.899 144.076 276.152 144.333C276.405 144.591 276.711 144.791 277.048 144.921C277.385 145.05 277.746 145.105 278.106 145.082C278.009 145.972 278.246 146.868 278.77 147.594C279.295 148.321 280.07 148.827 280.946 149.015C281.002 149.814 281.322 150.572 281.855 151.17C282.387 151.769 283.104 152.173 283.891 152.321C284.678 152.469 285.492 152.351 286.206 151.987C286.919 151.622 287.492 151.032 287.833 150.307C288.255 150.852 288.823 151.265 289.471 151.499C290.119 151.734 290.82 151.779 291.492 151.63C292.165 151.481 292.782 151.145 293.27 150.659C293.759 150.173 294.099 149.559 294.252 148.887L294.593 149.001C295.204 149.13 295.84 149.027 296.38 148.712C296.919 148.397 297.321 147.893 297.509 147.298C297.697 146.702 297.657 146.059 297.396 145.491C297.135 144.924 296.672 144.474 296.098 144.23L295.97 144.244Z" fill="#F1F2F5"/>
<path d="M203.437 122.595L203.06 125.41L217.852 127.389L218.229 124.574L203.437 122.595Z" fill="#939AA6"/>
<path d="M214.895 104.645L212.711 106.46L222.25 117.938L224.434 116.123L214.895 104.645Z" fill="#939AA6"/>
<path d="M233.588 100.025L232.209 114.885L235.037 115.148L236.416 100.287L233.588 100.025Z" fill="#939AA6"/>
</svg>
