<svg width="468" height="343" viewBox="0 0 468 343" fill="none" xmlns="http://www.w3.org/2000/svg">
<path d="M440.718 49.7408C440.718 48.0315 440.039 46.3921 438.831 45.1834C437.622 43.9747 435.983 43.2956 434.273 43.2956C433.933 43.2961 433.593 43.3266 433.258 43.3869C432.514 42.0021 431.409 40.8449 430.059 40.0388C428.71 39.2326 427.167 38.8077 425.595 38.8093H425.28C425.488 37.9933 425.594 37.1545 425.595 36.3124C425.595 33.5774 424.508 30.9544 422.575 29.0204C420.641 27.0865 418.018 26 415.283 26C412.548 26 409.925 27.0865 407.991 29.0204C406.057 30.9544 404.97 33.5774 404.97 36.3124C404.976 37.1542 405.082 37.9924 405.285 38.8093H404.97C402.666 38.8093 400.456 39.7247 398.827 41.3541C397.197 42.9835 396.282 45.1934 396.282 47.4977C396.282 49.802 397.197 52.0119 398.827 53.6413C400.456 55.2707 402.666 56.1861 404.97 56.1861H435.146V56.1252C436.691 55.9163 438.107 55.1539 439.131 53.9797C440.156 52.8056 440.72 51.2994 440.718 49.7408Z" fill="#F8F8F8" fill-opacity="0.9"/>
<path d="M8.23141e-06 96.2712C8.23141e-06 93.6663 1.17667 91.1681 3.27114 89.3262C5.36561 87.4842 8.20632 86.4494 11.1683 86.4494C11.7581 86.4502 12.3467 86.4968 12.9271 86.5886C14.2159 84.4782 16.1316 82.7149 18.47 81.4864C20.8085 80.2579 23.4821 79.6104 26.206 79.6129H26.7513C26.3907 78.3693 26.2076 77.0912 26.206 75.8079C26.206 71.64 28.0887 67.6429 31.4398 64.6958C34.791 61.7487 39.3361 60.093 44.0754 60.093C48.8146 60.093 53.3598 61.7487 56.7109 64.6958C60.0621 67.6429 61.9447 71.64 61.9447 75.8079C61.9347 77.0907 61.7516 78.368 61.3995 79.6129H61.9447C65.9376 79.6129 69.767 81.0078 72.5904 83.4908C75.4138 85.9738 77 89.3415 77 92.8529C77 96.3644 75.4138 99.7321 72.5904 102.215C69.767 104.698 65.9376 106.093 61.9447 106.093H9.65578V106C6.97957 105.682 4.52569 104.52 2.74985 102.731C0.974021 100.941 -0.00307458 98.6462 8.23141e-06 96.2712Z" fill="#F8F8F8" fill-opacity="0.6"/>
<path d="M447.5 214.271C447.5 211.666 446.461 209.168 444.611 207.326C442.762 205.484 440.253 204.449 437.637 204.449C437.116 204.45 436.596 204.497 436.084 204.589C434.946 202.478 433.254 200.715 431.189 199.486C429.124 198.258 426.763 197.61 424.357 197.613H423.876C424.194 196.369 424.356 195.091 424.357 193.808C424.357 189.64 422.694 185.643 419.735 182.696C416.775 179.749 412.762 178.093 408.576 178.093C404.391 178.093 400.377 179.749 397.418 182.696C394.458 185.643 392.796 189.64 392.796 193.808C392.804 195.091 392.966 196.368 393.277 197.613H392.796C389.269 197.613 385.888 199.008 383.394 201.491C380.901 203.974 379.5 207.341 379.5 210.853C379.5 214.364 380.901 217.732 383.394 220.215C385.888 222.698 389.269 224.093 392.796 224.093H438.973V224C441.336 223.682 443.503 222.52 445.072 220.731C446.64 218.941 447.503 216.646 447.5 214.271Z" fill="#F8F8F8"/>
<path opacity="0.45" d="M160.53 323.132C230.412 323.132 287.062 315.556 287.062 306.211C287.062 296.867 230.412 289.291 160.53 289.291C90.6488 289.291 33.9985 296.867 33.9985 306.211C33.9985 315.556 90.6488 323.132 160.53 323.132Z" fill="#D9D9D9"/>
<path opacity="0.58" d="M246.938 290.445C246.938 290.445 236.45 287.634 234.13 277.878C234.13 277.878 250.342 274.53 250.879 291.268L246.938 290.445Z" fill="#1A3CA2"/>
<path opacity="0.73" d="M248.217 289.303C248.217 289.303 240.848 277.763 247.246 266.921C247.246 266.921 259.619 274.713 254.193 289.303H248.217Z" fill="#1A3CA2"/>
<path d="M250.103 289.302C250.103 289.302 253.918 277.066 265.595 274.713C265.595 274.713 267.823 282.63 258.089 289.302H250.103Z" fill="#1A3CA2"/>
<path d="M242.505 289.108L244.687 303.618H258.066L259.974 289.108H242.505Z" fill="#24285B"/>
<path d="M162.953 296.432C162.953 296.432 164.701 300.716 168.665 300.887C172.63 301.059 173.818 304.852 170.322 306.006C166.826 307.16 157.48 303.013 157.48 303.013V297.3L162.953 296.432Z" fill="#1A3CA2"/>
<path d="M78.0763 295.438C78.0763 295.438 75.4028 299.231 71.5183 298.511C67.6338 297.791 65.6116 301.23 68.7649 303.138C71.9182 305.046 81.9379 303.07 81.9379 303.07L83.1947 297.517L78.0763 295.438Z" fill="#1A3CA2"/>
<path d="M392.092 65.2468H117.573V253.508H392.092V65.2468Z" fill="#D9D9D9"/>
<path d="M137.406 87.4913C140.769 87.4913 143.496 84.7649 143.496 81.4018C143.496 78.0386 140.769 75.3123 137.406 75.3123C134.043 75.3123 131.317 78.0386 131.317 81.4018C131.317 84.7649 134.043 87.4913 137.406 87.4913Z" fill="#24285B"/>
<path d="M155.515 87.4913C158.878 87.4913 161.604 84.7649 161.604 81.4018C161.604 78.0386 158.878 75.3123 155.515 75.3123C152.152 75.3123 149.425 78.0386 149.425 81.4018C149.425 84.7649 152.152 87.4913 155.515 87.4913Z" fill="#1A3CA2"/>
<path d="M172.572 87.4913C175.936 87.4913 178.662 84.7649 178.662 81.4018C178.662 78.0386 175.936 75.3123 172.572 75.3123C169.209 75.3123 166.483 78.0386 166.483 81.4018C166.483 84.7649 169.209 87.4913 172.572 87.4913Z" fill="#FFC74B"/>
<path d="M326.856 103.075H247.155V231.412H326.856V103.075Z" fill="#F2F2F2"/>
<path d="M303.183 118.327H270.816V126.885H303.183V118.327Z" fill="#BDBCBC"/>
<path d="M303.183 133.991H270.816V142.548H303.183V133.991Z" fill="#BDBCBC"/>
<path d="M313.911 154.179H260.214V220.467H313.911V154.179Z" fill="#D9D9D9"/>
<path d="M232.873 103.075H153.173V231.412H232.873V103.075Z" fill="#F2F2F2"/>
<path d="M209.201 118.327H176.834V126.885H209.201V118.327Z" fill="#BDBCBC"/>
<path d="M209.201 133.991H176.834V142.548H209.201V133.991Z" fill="#BDBCBC"/>
<path d="M219.929 154.179H166.231V220.467H219.929V154.179Z" fill="#D9D9D9"/>
<path opacity="0.08" d="M265.96 187.323C265.96 187.323 271.856 192.441 265.96 195.743C260.065 199.045 272.427 205.329 265.96 210.756C259.494 216.183 259.688 240.175 211.703 253.508H145.438C145.438 253.508 110.775 231.378 118.772 190.979C126.77 150.58 148.1 153.928 148.1 153.928L154.955 133.603L153.196 120.395C153.196 120.395 163.387 108.068 170.23 118.327C177.074 128.587 184.443 139.338 173.327 142.914L165.992 171.625L181.301 168.963L188.887 210.756L193.8 228.75L223.505 228.373C223.505 228.373 241.785 211.418 242.928 210.756C244.07 210.093 265.96 187.323 265.96 187.323Z" fill="black"/>
<path d="M174.069 160.68C174.069 160.68 195.777 169.02 199.513 195.743C203.249 222.466 219.792 221.895 239.5 205.614C259.208 189.334 264.372 180.194 265.778 184.478C267.183 188.763 262.91 191.904 262.91 191.904C262.91 191.904 270.222 195.583 265.778 199.194C261.333 202.804 260.316 200.907 257.483 204.335C243.51 221.21 208.001 262.602 174.081 216.994L174.069 160.68Z" fill="#F4A28C"/>
<path d="M173.304 160.257C173.304 160.257 199.318 166.678 204.46 207.237L180.856 226.659L173.304 217.702V160.257Z" fill="#1A3CA2"/>
<path opacity="0.2" d="M173.304 160.257C173.304 160.257 199.318 166.678 204.46 207.237L180.856 226.659L173.304 217.702V160.257Z" fill="white"/>
<path d="M159.742 123.229C159.742 123.229 163.947 128.816 165.455 133.374C165.595 133.814 165.647 134.278 165.608 134.739C165.569 135.199 165.44 135.648 165.228 136.058C165.016 136.469 164.725 136.833 164.372 137.132C164.019 137.43 163.61 137.655 163.17 137.796C161.774 138.328 160.254 138.447 158.793 138.137C157.332 137.826 155.991 137.101 154.932 136.048L149.917 131.98C148.998 131.058 148.389 129.873 148.175 128.59C147.96 127.306 148.149 125.988 148.717 124.817C150.499 120.327 157.354 119.687 159.742 123.229Z" fill="#F4A28C"/>
<path d="M153.63 129.158L145.792 150.706L157.983 154.168L158.771 137.533L153.63 129.158Z" fill="#F4A28C"/>
<path d="M162.21 126.885L165.295 128.141C165.465 128.217 165.614 128.334 165.729 128.481C165.844 128.628 165.921 128.801 165.954 128.985C165.987 129.168 165.974 129.357 165.917 129.535C165.86 129.713 165.76 129.874 165.626 130.004L163.627 131.843L162.21 126.885Z" fill="#F4A28C"/>
<path opacity="0.31" d="M158.748 138.001C158.173 137.912 157.629 137.684 157.161 137.338C156.693 136.991 156.317 136.537 156.063 136.013C156.063 136.013 154.201 140.96 158.52 142.777L158.748 138.001Z" fill="#CE8172"/>
<path d="M145.815 150.706L157.994 154.133C157.994 154.133 201.752 164.553 189.196 196.12C176.64 227.687 148.066 247.384 148.066 247.384L114.819 241.317C114.819 241.317 82.3949 138.847 145.815 150.706Z" fill="#1A3CA2"/>
<path opacity="0.08" d="M138.96 157.915C138.96 157.915 151.071 176.355 143.53 193.515C135.99 210.676 168.002 185.609 168.002 185.609L182.946 189.905L165.992 224.751L148.1 221.609C146.595 226.572 143.999 231.135 140.502 234.964C137.005 238.793 132.695 241.792 127.889 243.74L114.819 241.317L112.945 234.702L101.829 208.996L110.112 188.762L138.96 157.915Z" fill="black"/>
<path d="M148.1 247.43L160.028 256.341C164.5 259.679 167.749 264.397 169.273 269.766C170.797 275.135 170.511 280.856 168.459 286.046L164.095 297.003H154.783L157.24 284.915C157.984 281.268 157.541 277.479 155.974 274.103C154.407 270.727 151.8 267.941 148.534 266.155L126.689 254.216L114.819 241.318L148.1 247.43Z" fill="#24285B"/>
<path d="M144.878 172.516L127.855 206.757L160.725 214.549L178.491 181.451L144.878 172.516Z" fill="#FFC74B"/>
<path opacity="0.08" d="M152.11 197.297C152.11 197.297 156.577 197.24 156.292 204.152C156.006 211.064 164.369 207.717 164.369 207.717L160.725 214.514L141.302 209.773L152.11 197.297Z" fill="black"/>
<path d="M138.457 167.238C138.959 164.93 138.787 162.527 137.962 160.314C137.138 158.102 135.695 156.172 133.805 154.756C131.916 153.339 129.66 152.495 127.304 152.324C124.949 152.153 122.594 152.662 120.52 153.791C111.456 158.716 104.465 166.737 100.823 176.389C91.1463 201.09 82.8518 225.277 106.536 233.423C130.22 241.569 146.409 210.756 146.409 210.756L139.965 206.951C139.965 206.951 122.234 226.202 112.545 215.257C108.318 210.47 134.093 186.477 138.457 167.238Z" fill="#F4A28C"/>
<path d="M151.139 136.013C151.139 136.013 144.695 133.363 145.072 129.158C145.449 124.954 141.896 124.828 144.444 119.607C146.992 114.386 157.754 112.683 158.748 117.95C159.742 123.217 156.932 125.845 153.173 127.502C153.173 127.502 156.692 135.225 151.139 136.013Z" fill="#24285B"/>
<path d="M154.955 131.238C154.955 131.238 153.481 128.953 151.882 130.232C150.282 131.512 152.373 134.802 154.898 133.66L154.955 131.238Z" fill="#F4A28C"/>
<path d="M129.82 151.734C129.82 151.734 106.022 149.152 96.8589 182.25L124.393 195.743C124.393 195.743 156.634 159.16 129.82 151.734Z" fill="#1A3CA2"/>
<path opacity="0.2" d="M129.82 151.734C129.82 151.734 106.022 149.152 96.8589 182.25L124.393 195.743C124.393 195.743 156.634 159.16 129.82 151.734Z" fill="white"/>
<path d="M114.819 241.318L74.98 292.581L84.0172 299.642C84.0172 299.642 116.875 261.94 140.559 250.835L114.819 241.318Z" fill="#24285B"/>
<path d="M139.954 206.951C139.954 206.951 137.155 201.067 139.246 198.588C141.336 196.109 141.028 199.296 143.519 195.743C146.009 192.19 160.222 193.904 146.398 210.756L139.954 206.951Z" fill="#F4A28C"/>
<path opacity="0.08" d="M392.092 105.509H347.043V150.557H392.092V105.509Z" fill="black"/>
<path d="M250.63 194.168L246.203 197.778L254.803 208.323L259.23 204.713L250.63 194.168Z" fill="#24285B"/>
<path d="M358.811 179.017C365.31 179.017 370.579 173.748 370.579 167.249C370.579 160.75 365.31 155.481 358.811 155.481C352.312 155.481 347.043 160.75 347.043 167.249C347.043 173.748 352.312 179.017 358.811 179.017Z" fill="#BDBCBC"/>
</svg>
